<svg id="Capa_1" data-name="Capa 1" xmlns="http://www.w3.org/2000/svg" width="11.05" height="16.92" viewBox="0 0 11.05 16.92"><title>hojas</title><path d="M0,4.24" transform="translate(-4.83)" fill="none" stroke="#040505" stroke-miterlimit="10"/><g opacity="0.47"><path d="M5.27.31A11.36,11.36,0,0,1,8.09,2.57a12.94,12.94,0,0,1,2.1,3A15.21,15.21,0,0,1,11.4,9a14.8,14.8,0,0,1,.36,3.64v0h0l-.27,1.76v0c0,.42,0,.84,0,1.26a4.88,4.88,0,0,0,.15,1.26,4.14,4.14,0,0,1-.36-1.23c-.07-.43-.13-.85-.17-1.28h0v0l.11-1.77v0A19,19,0,0,0,9.54,5.87a16.31,16.31,0,0,0-1.81-3A17.07,17.07,0,0,0,5.27.31Z" transform="translate(-4.83)" fill="#040505"/><path d="M9.58,6" transform="translate(-4.83)" fill="none" stroke="#040505" stroke-miterlimit="10"/><path d="M9.82,6.16a5.33,5.33,0,0,0-1.14-.48,7.47,7.47,0,0,0-1.21-.19,5,5,0,0,1-1.24-.37L5.07,4.65l.51-.32a1.08,1.08,0,0,0,0,.56A4,4,0,0,1,6,5.52a1.24,1.24,0,0,0,1,.55c.47,0,1,.07,1.51.12s1,.09,1.53.18c-.51.1-1,.15-1.53.21A15.48,15.48,0,0,1,7,6.69a1.79,1.79,0,0,1-1.59-.8A6,6,0,0,0,5,5.24a1.6,1.6,0,0,1-.12-1l0-.54L5.36,4c.38.17.76.34,1.13.53A6.78,6.78,0,0,0,7.59,5a4.47,4.47,0,0,1,1.21.42A3.74,3.74,0,0,1,9.82,6.16Z" transform="translate(-4.83)" fill="#040505"/><path d="M11.12,8.23a1.89,1.89,0,0,0,.1-1.53A3.31,3.31,0,0,1,11.45,5a2.38,2.38,0,0,1,1.14-1.43,4.23,4.23,0,0,1,1.74-.3l.59,0-.23.53a5.07,5.07,0,0,1-1,1.35,5.92,5.92,0,0,0-.92,1.17c-.25.43-.47.9-.72,1.36a4.64,4.64,0,0,1-.91,1.29C11.71,8,11.84,7,12.3,6a5.24,5.24,0,0,1,.88-1.35A5.35,5.35,0,0,0,14,3.49l.35.51a3.88,3.88,0,0,0-1.45.21,1.8,1.8,0,0,0-.89,1,3.09,3.09,0,0,0-.41,1.45C11.58,7.18,11.61,7.88,11.12,8.23Z" transform="translate(-4.83)" fill="#040505"/><path d="M5.66.58c-.23,0-.42-.09-.61-.13L5.27.29a9.88,9.88,0,0,0,.4,1.12,7.06,7.06,0,0,0,.54,1,.63.63,0,0,0,.3.25,5,5,0,0,0,.56.14,2.5,2.5,0,0,1,1.16.61A7.37,7.37,0,0,0,7,3.32a3.22,3.22,0,0,1-.68,0,1.22,1.22,0,0,1-.7-.46A3.43,3.43,0,0,1,5,1.63,3.27,3.27,0,0,1,4.94.31L5,0l.18.15C5.34.3,5.51.43,5.66.58Z" transform="translate(-4.83)" fill="#040505"/><path d="M11.35,14.44c.11-.46.24-.89.36-1.34l.13-.34c.07-.11.15-.2.22-.3a2.63,2.63,0,0,1,.5-.5,13.4,13.4,0,0,1,1-.93,2.12,2.12,0,0,1,.65-.39,5.14,5.14,0,0,1,.72-.15l.9-.13-.72.57a4.35,4.35,0,0,0-.94,1.1c-.26.42-.47.9-.72,1.35a10.84,10.84,0,0,1-.78,1.36,1.52,1.52,0,0,1-1.43.58,2.08,2.08,0,0,0,.72-.21,1.39,1.39,0,0,0,.5-.52,10.36,10.36,0,0,0,.64-1.39,12.75,12.75,0,0,1,.66-1.41,4.17,4.17,0,0,1,1-1.25L15,11a2.07,2.07,0,0,0-1.16.42l-1.08.83a3.09,3.09,0,0,0-.51.42c-.07.08-.15.16-.21.24l-.15.29C11.74,13.6,11.56,14,11.35,14.44Z" transform="translate(-4.83)" fill="#040505"/><path d="M11.17,13.82c-.26-.31-.48-.66-.75-1l-.37-.46-.45-.36a15.09,15.09,0,0,0-2-1.24l.35-.29c.14.44.26.88.4,1.29a2.18,2.18,0,0,0,.77,1c.35.26.78.43,1.18.68a1.93,1.93,0,0,1,.92,1.05,2.09,2.09,0,0,0-1-.83,11.72,11.72,0,0,1-1.29-.56,2.48,2.48,0,0,1-1-1.11c-.17-.46-.31-.9-.43-1.34L7.3,10.1l.5.27a9.74,9.74,0,0,1,2,1.39l.45.45c.11.17.23.35.33.53A11,11,0,0,1,11.17,13.82Z" transform="translate(-4.83)" fill="#040505"/><path d="M11.73,11.36a1.67,1.67,0,0,1,.17-1,1.52,1.52,0,0,1,.3-.43c.14-.13.3-.15.44-.25-.07.16-.23.27-.3.38a2.25,2.25,0,0,0-.21.41A7.85,7.85,0,0,0,11.73,11.36Z" transform="translate(-4.83)" fill="#040505"/><path d="M10.89,9.55a2.61,2.61,0,0,1-.78-.29,1.27,1.27,0,0,0-.68-.32.53.53,0,0,1,.43-.08c.14.05.25.13.38.19A2.76,2.76,0,0,1,10.89,9.55Z" transform="translate(-4.83)" fill="#040505"/><path d="M11.27,12a3.81,3.81,0,0,1-.57-.46c-.16-.17-.33-.31-.52-.48a1,1,0,0,1,.7.3A1.5,1.5,0,0,1,11.27,12Z" transform="translate(-4.83)" fill="#040505"/><path d="M10,5.45A11.17,11.17,0,0,0,9.87,4a3.56,3.56,0,0,1,0-.73.75.75,0,0,1,.37-.63.88.88,0,0,0-.18.64c0,.23,0,.46,0,.7a5.77,5.77,0,0,1,0,.72A2,2,0,0,1,10,5.45Z" transform="translate(-4.83)" fill="#040505"/><path d="M8.37,3.08a1.58,1.58,0,0,1-.08-.6c0-.09,0-.19.05-.29a.66.66,0,0,0,0-.28.33.33,0,0,1,.15.28,1.51,1.51,0,0,1,0,.3A1.38,1.38,0,0,1,8.37,3.08Z" transform="translate(-4.83)" fill="#040505"/></g></svg>