<svg id="Capa_1" data-name="Capa 1" xmlns="http://www.w3.org/2000/svg" width="11.41" height="8.15" viewBox="0 0 11.41 8.15"><defs><style>.cls-1{fill:#dc3389;}.cls-2{fill:#fdfdfc;}</style></defs><title>567</title><path class="cls-1" d="M15.19,13.83H5.06a.78.78,0,0,1-.59-.27.73.73,0,0,1-.16-.6l1-5.79h9.53l.89,6.09a.46.46,0,0,1-.12.39A.5.5,0,0,1,15.19,13.83ZM5.47,7.39,4.53,13a.5.5,0,0,0,.11.42.57.57,0,0,0,.42.19H15.19a.29.29,0,0,0,.22-.1.26.26,0,0,0,.07-.22l-.86-5.9Z" transform="translate(-4.3 -5.74)"/><path class="cls-2" d="M13.93,13.72H6a.94.94,0,0,1-.94-1v-5a1,1,0,0,1,.94-1h8a1,1,0,0,1,1,1v5A1,1,0,0,1,13.93,13.72Z" transform="translate(-4.3 -5.74)"/><path class="cls-1" d="M13.93,13.89H6a1.12,1.12,0,0,1-1.11-1.12v-5A1.12,1.12,0,0,1,6,6.66h8a1.12,1.12,0,0,1,1.12,1.12v5A1.12,1.12,0,0,1,13.93,13.89ZM6,7a.78.78,0,0,0-.78.78v5a.78.78,0,0,0,.78.78h8a.78.78,0,0,0,.78-.78v-5A.78.78,0,0,0,13.93,7Z" transform="translate(-4.3 -5.74)"/><rect class="cls-1" x="5.01" y="8.4" width="9.87" height="0.33" transform="translate(-4.36 -5.67) rotate(-0.43)"/><rect class="cls-1" x="3.11" y="3.53" width="0.33" height="3.87"/><rect class="cls-1" x="4.9" y="3.53" width="0.33" height="3.87"/><rect class="cls-1" x="6.58" y="3.53" width="0.33" height="3.87"/><rect class="cls-1" x="8.21" y="3.53" width="0.33" height="3.87"/><rect class="cls-1" x="2.01" y="4.54" width="7.32" height="0.33"/><rect class="cls-1" x="2.01" y="5.93" width="7.32" height="0.33"/><ellipse class="cls-2" cx="2.94" cy="1.3" rx="0.55" ry="1.02"/><path class="cls-1" d="M7.24,8.23c-.4,0-.72-.53-.72-1.19s.32-1.19.72-1.19S8,6.37,8,7,7.64,8.23,7.24,8.23Zm0-2.05c-.18,0-.39.37-.39.86s.21.85.39.85.38-.36.38-.85S7.42,6.18,7.24,6.18Z" transform="translate(-4.3 -5.74)"/><ellipse class="cls-2" cx="5.62" cy="1.19" rx="0.55" ry="1.02"/><path class="cls-1" d="M9.91,8.12c-.4,0-.71-.52-.71-1.19s.31-1.19.71-1.19.72.52.72,1.19S10.32,8.12,9.91,8.12Zm0-2c-.18,0-.38.37-.38.86s.2.85.38.85.39-.36.39-.85S10.1,6.07,9.91,6.07Z" transform="translate(-4.3 -5.74)"/><ellipse class="cls-2" cx="8.38" cy="1.19" rx="0.55" ry="1.02"/><path class="cls-1" d="M12.67,8.12c-.4,0-.72-.52-.72-1.19s.32-1.19.72-1.19.72.52.72,1.19S13.08,8.12,12.67,8.12Zm0-2c-.18,0-.38.37-.38.86s.2.85.38.85.39-.36.39-.85S12.85,6.07,12.67,6.07Z" transform="translate(-4.3 -5.74)"/><rect class="cls-1" x="8.3" y="10.65" width="0.33" height="0.99" transform="translate(-9.63 3.05) rotate(-43.09)"/><rect class="cls-1" x="7.97" y="10.98" width="0.99" height="0.33" transform="translate(-9.75 3.97) rotate(-46.9)"/><rect class="cls-1" x="11.69" y="9.32" width="0.33" height="0.99" transform="translate(-7.8 5.01) rotate(-43.09)"/><rect class="cls-1" x="11.37" y="9.65" width="0.99" height="0.33" transform="translate(-7.71 6.03) rotate(-46.91)"/></svg>